<svg width="20" height="20" viewBox="0 0 20 20" fill="none" xmlns="http://www.w3.org/2000/svg">
<g clip-path="url(#clip0_209_1568)">
<path d="M19.676 1.275C19.5766 1.21206 19.4629 1.17528 19.3455 1.16809C19.2281 1.1609 19.1107 1.18354 19.0044 1.23389L13.101 4.0275L7.19771 1.23389C7.10604 1.18429 7.00346 1.15833 6.89924 1.15833C6.79501 1.15833 6.69243 1.18429 6.60077 1.23389L0.399376 4.16944C0.280007 4.22592 0.17914 4.31515 0.108521 4.42673C0.0379007 4.53832 0.000434876 4.66767 0.000488338 4.79973V18.1439C0.000448199 18.2615 0.0301658 18.3772 0.0868764 18.4803C0.143587 18.5833 0.225448 18.6704 0.324837 18.7333C0.424227 18.7962 0.537914 18.8329 0.655319 18.8401C0.772725 18.8472 0.890032 18.8246 0.996321 18.7742L6.89966 15.98L12.803 18.7742C12.8963 18.8184 12.9982 18.8414 13.1015 18.8414C13.2047 18.8414 13.3067 18.8184 13.3999 18.7742L19.6016 15.8386C19.7209 15.7822 19.8218 15.693 19.8924 15.5815C19.963 15.4699 20.0005 15.3406 20.0005 15.2086V1.86417C20.0004 1.74658 19.9707 1.63092 19.9139 1.52792C19.8572 1.42492 19.7754 1.33792 19.676 1.275ZM6.20188 14.7669L1.39632 17.0419V5.24111L6.20188 2.96611V14.7669ZM7.5966 2.96611L12.4035 5.24111V17.0419L7.5966 14.7669V2.96611ZM18.6052 14.7669L13.7997 17.0419V5.24111L18.6052 2.96611V14.7669Z" fill="black"/>
<path d="M16.6862 7.36307C16.5482 7.36288 16.4134 7.32185 16.2988 7.24514C16.1841 7.16843 16.0948 7.05947 16.042 6.93203C15.9891 6.80459 15.9753 6.66436 16.0021 6.52904C16.0289 6.39372 16.0952 6.26937 16.1926 6.17168C16.3266 6.04661 16.503 5.97705 16.6863 5.97705C16.8696 5.97705 17.0461 6.04661 17.1801 6.17168C17.2772 6.26949 17.3433 6.39384 17.3699 6.5291C17.3966 6.66435 17.3826 6.80447 17.3298 6.93182C17.277 7.05917 17.1877 7.16806 17.0732 7.24479C16.9587 7.32153 16.824 7.36268 16.6862 7.36307Z" fill="black"/>
<path d="M4.06211 12.3639C4.02322 12.2811 4.00104 12.1915 3.99683 12.1001C3.99262 12.0087 4.00647 11.9174 4.03759 11.8314C4.0687 11.7454 4.11647 11.6664 4.17816 11.5988C4.23985 11.5313 4.31425 11.4766 4.39711 11.4378C4.47977 11.3987 4.56934 11.3763 4.66069 11.3719C4.75204 11.3674 4.84337 11.3811 4.92942 11.4121C5.01547 11.4431 5.09455 11.4907 5.16213 11.5523C5.22971 11.614 5.28445 11.6883 5.32322 11.7712C5.40222 11.9386 5.41149 12.1305 5.34898 12.3048C5.28646 12.479 5.1573 12.6213 4.98988 12.7003C4.89642 12.7438 4.79463 12.7665 4.69155 12.7667C4.55925 12.7661 4.42986 12.7279 4.31842 12.6566C4.20699 12.5853 4.1181 12.4838 4.06211 12.3639ZM8.34322 10.6845C8.31817 10.5964 8.31079 10.5042 8.32151 10.4133C8.33223 10.3223 8.36084 10.2344 8.40568 10.1545C8.45053 10.0746 8.51073 10.0045 8.58282 9.94796C8.65491 9.89147 8.73746 9.84979 8.82572 9.82533C8.91385 9.80055 9.006 9.79338 9.09691 9.80423C9.18781 9.81509 9.27568 9.84375 9.3555 9.88859C9.43532 9.93342 9.50552 9.99355 9.56208 10.0655C9.61865 10.1375 9.66047 10.2199 9.68516 10.3081C9.70993 10.3964 9.71701 10.4887 9.70599 10.5798C9.69497 10.6708 9.66607 10.7588 9.62095 10.8386C9.57583 10.9184 9.51538 10.9886 9.44307 11.045C9.37076 11.1014 9.28802 11.1429 9.19961 11.1673C9.13907 11.186 9.07603 11.1954 9.01266 11.1951C8.86064 11.1947 8.71292 11.1446 8.59205 11.0524C8.47117 10.9602 8.38379 10.831 8.34322 10.6845ZM10.4524 10.1434C10.4518 10.052 10.4692 9.9614 10.5036 9.87676C10.5381 9.79213 10.5889 9.71512 10.6532 9.65017C10.7175 9.58522 10.794 9.53358 10.8783 9.49824C10.9625 9.4629 11.0529 9.44454 11.1443 9.44422C11.3292 9.44289 11.507 9.51498 11.6388 9.64466C11.7706 9.77434 11.8455 9.95101 11.8471 10.1359C11.8473 10.321 11.7745 10.4986 11.6445 10.6303C11.5145 10.762 11.3377 10.8371 11.1527 10.8392H11.1499C11.0583 10.8396 10.9676 10.8219 10.8829 10.7871C10.7982 10.7523 10.7212 10.7011 10.6564 10.6364C10.5915 10.5717 10.5401 10.4949 10.5051 10.4103C10.4701 10.3257 10.4522 10.235 10.4524 10.1434ZM14.8841 8.86394C14.822 8.79626 14.7739 8.71697 14.7425 8.63064C14.7111 8.54432 14.6971 8.45266 14.7013 8.3609C14.7054 8.26915 14.7277 8.17912 14.7667 8.09598C14.8057 8.01285 14.8608 7.93823 14.9288 7.87644C14.9964 7.81466 15.0755 7.76682 15.1616 7.73563C15.2477 7.70445 15.3391 7.69053 15.4305 7.69469C15.522 7.69884 15.6118 7.72098 15.6947 7.75984C15.7776 7.7987 15.8521 7.85352 15.9138 7.92116C16.0384 8.05818 16.1036 8.23899 16.0953 8.42401C16.0869 8.60903 16.0055 8.7832 15.8691 8.90839C15.7394 9.02499 15.5712 9.08967 15.3968 9.09005C15.3003 9.09042 15.2047 9.07047 15.1164 9.03152C15.0281 8.99256 14.9489 8.93547 14.8841 8.86394Z" fill="black"/>
<path d="M2.75931 13.7447C2.5743 13.7441 2.39692 13.6709 2.26542 13.5408C2.13484 13.4097 2.06152 13.2322 2.06152 13.0472C2.06152 12.8622 2.13484 12.6847 2.26542 12.5536C2.39889 12.4286 2.57491 12.359 2.75778 12.359C2.94065 12.359 3.11667 12.4286 3.25014 12.5536C3.34768 12.6509 3.41419 12.775 3.44125 12.9102C3.46832 13.0453 3.45475 13.1855 3.40223 13.3129C3.34972 13.4404 3.26062 13.5494 3.14619 13.6262C3.03177 13.7031 2.89714 13.7443 2.75931 13.7447Z" fill="black"/>
</g>
<defs>
<clipPath id="clip0_209_1568">
<rect width="20" height="20" fill="white"/>
</clipPath>
</defs>
</svg>
