<svg width="15" height="15" viewBox="0 0 15 15" fill="none" xmlns="http://www.w3.org/2000/svg">
<g clip-path="url(#clip0_209_1708)">
<path d="M12.957 0H2.04296C0.916428 0 0 0.916428 0 2.04296V12.957C0 14.0835 0.916428 14.9999 2.04296 14.9999H12.957C14.0835 14.9999 14.9999 14.0835 14.9999 12.957V2.04296C15 0.916428 14.0835 0 12.957 0ZM2.31221 12.8126C2.24343 12.8126 2.18749 12.7567 2.18749 12.6878V2.31221C2.18749 2.24343 2.24343 2.18749 2.31221 2.18749H12.6878C12.7566 2.18749 12.8126 2.24343 12.8126 2.31221V12.6878C12.8126 12.7566 12.7566 12.8126 12.6878 12.8126H2.31221ZM6.3546 3.11721H5.50794C5.13831 3.11721 4.83882 3.4168 4.83882 3.78633V11.2137C4.83882 11.5832 5.13831 11.8828 5.50794 11.8828H6.3546C6.72422 11.8828 7.02372 11.5832 7.02372 11.2137V9.50348C7.77394 9.4959 8.54878 9.42363 9.21326 9.04848C10.1127 8.54066 10.5688 7.61906 10.5688 6.30928C10.5688 3.11721 7.50718 3.11721 6.3546 3.11721ZM8.1068 7.23159C7.82997 7.38638 7.38745 7.41003 7.02363 7.41127V5.38678C8.11064 5.44397 8.45956 5.71108 8.45956 6.3893C8.45956 7.03425 8.21235 7.17253 8.1068 7.23159Z" fill="white"/>
</g>
<defs>
<clipPath id="clip0_209_1708">
<rect width="15" height="15" fill="white"/>
</clipPath>
</defs>
</svg>
