<svg width="15" height="15" viewBox="0 0 15 15" fill="none" xmlns="http://www.w3.org/2000/svg">
<g clip-path="url(#clip0_209_1629)">
<path d="M13.7094 0.972535C13.512 0.77496 13.2424 0.665915 12.9504 0.665915C12.6223 0.665915 12.2918 0.804162 12.0384 1.04628L10.9509 1.92899L10.9086 1.96743C10.6682 2.20752 10.5735 2.54482 10.6318 2.88452L8.09655 5.34617L7.67109 4.97801C7.97605 3.78535 7.93853 2.19661 6.90999 1.16808C6.15684 0.414926 5.19317 0 4.1968 0C3.80072 0 3.40927 0.0661664 3.03316 0.196466C2.8609 0.256164 2.72894 0.396629 2.68033 0.572395C2.63172 0.748161 2.67257 0.93631 2.78937 1.07622L4.15577 2.70931L4.08849 3.75966L2.95294 3.88922L1.33187 2.53299C1.19195 2.41581 1.00362 2.37497 0.827854 2.42395C0.652088 2.47274 0.511623 2.6047 0.451926 2.77696C0.00909123 4.05574 0.399251 5.43304 1.52242 6.55547C2.12753 7.16094 2.99878 7.48087 4.04155 7.48087C4.11788 7.48087 4.19476 7.47699 4.27165 7.47329C4.23302 7.50693 4.19421 7.5402 4.15761 7.57679L1.0428 10.6914C0.178019 11.5562 0.178019 12.9631 1.0428 13.8279L1.5653 14.3503C1.9841 14.7693 2.54116 15 3.13351 15C3.72587 15 4.28292 14.7693 4.70173 14.3503L7.81636 11.2355C7.98898 11.0631 8.12483 10.8692 8.22722 10.662L10.9938 13.8587C11.0027 13.8689 11.0119 13.8785 11.0212 13.8881C11.3313 14.1981 11.7967 14.3688 12.3323 14.3688C12.9831 14.3688 13.6436 14.1129 14.056 13.7007C14.7808 12.9758 15.0093 11.4335 14.243 10.6667C14.2332 10.6572 14.2238 10.648 14.2136 10.6397L10.1854 7.15429L12.5094 4.76102C12.5733 4.77193 12.6373 4.77729 12.7018 4.77729C12.9801 4.77729 13.237 4.67323 13.4255 4.4849L14.3467 3.35508C14.5576 3.13477 14.6895 2.85698 14.7202 2.5694C14.7559 2.23265 14.6467 1.90995 14.4206 1.6841L13.7094 0.972535ZM7.03234 10.4515L3.91772 13.5663C3.70831 13.7757 3.42978 13.8911 3.13351 13.8911C2.83724 13.8911 2.5589 13.7757 2.34931 13.5663L1.82682 13.0438C1.39452 12.6114 1.39452 11.9079 1.82682 11.4758L4.94163 8.36081C5.15104 8.15141 5.42956 8.03608 5.72565 8.03608C5.8127 8.03608 5.8979 8.04754 5.98052 8.06657L7.35523 9.65512C7.35855 9.94289 7.25154 10.2323 7.03234 10.4515ZM13.2716 12.9167C13.0662 13.122 12.6886 13.2599 12.3319 13.2599C12.1081 13.2599 11.9168 13.2057 11.8157 13.1141L5.9369 6.32148C5.7896 6.15126 5.55376 6.08694 5.34085 6.15884C4.92685 6.29819 4.47754 6.37175 4.04136 6.37175C3.30983 6.37175 2.69364 6.15847 2.30643 5.77108C1.95601 5.42066 1.46383 4.80076 1.39027 4.02783L2.42343 4.89225C2.53986 4.98983 2.69086 5.03512 2.84223 5.01793L4.67475 4.80871C4.94145 4.77821 5.14808 4.56123 5.16508 4.29324L5.27616 2.55887C5.28522 2.41674 5.23938 2.27683 5.14808 2.16778L4.26296 1.10986C4.93997 1.12834 5.59904 1.42572 6.12542 1.95209C6.84955 2.67641 6.83384 4.03301 6.51262 4.98706C6.44073 5.20035 6.50504 5.436 6.67527 5.5833L13.4688 11.4621C13.7152 11.7318 13.6569 12.5311 13.2716 12.9167ZM13.5405 2.59398L12.6705 3.66078C12.6615 3.65727 12.6513 3.65246 12.6402 3.64581L12.2637 3.42217L9.34595 6.42738L8.93805 6.07456L11.971 3.12941L11.7475 2.7533C11.7411 2.74184 11.7359 2.73168 11.7327 2.7228L12.7568 1.89129L12.7994 1.85284C12.8546 1.79795 12.9099 1.77892 12.9443 1.77577L13.6181 2.44964C13.6159 2.47736 13.598 2.53632 13.5405 2.59398Z" fill="white"/>
</g>
<defs>
<clipPath id="clip0_209_1629">
<rect width="15" height="15" fill="white"/>
</clipPath>
</defs>
</svg>
