<svg width="23" height="17" viewBox="0 0 23 17" fill="none" xmlns="http://www.w3.org/2000/svg">
<path d="M23 6.45247L17.9291 0H0V14.0088H2.43202C2.51791 15.5807 3.8236 16.8332 5.41657 16.8332C7.00955 16.8332 8.31524 15.5807 8.40112 14.0088H14.5989C14.6848 15.5807 15.9905 16.8332 17.5835 16.8332C19.1765 16.8332 20.4821 15.5807 20.568 14.0088H23V6.45247ZM12.5861 1.42268V8.00922H1.42268V1.42268H12.5861ZM5.41657 15.4105C4.55272 15.4105 3.84996 14.7077 3.84996 13.8439C3.84996 12.98 4.55272 12.2773 5.41657 12.2773C6.28042 12.2773 6.98318 12.98 6.98318 13.8439C6.98318 14.7077 6.28042 15.4105 5.41657 15.4105ZM5.41657 10.8546C4.21744 10.8546 3.18159 11.5646 2.70575 12.586H1.42268V9.4319H12.5861V12.586H8.12735C7.65151 11.5646 6.6157 10.8546 5.41657 10.8546ZM17.5834 15.4105C16.7196 15.4105 16.0168 14.7077 16.0168 13.8439C16.0168 12.98 16.7196 12.2773 17.5834 12.2773C18.4473 12.2773 19.15 12.98 19.15 13.8439C19.15 14.7077 18.4473 15.4105 17.5834 15.4105ZM21.5773 12.586H20.2943C19.8184 11.5646 18.7826 10.8546 17.5834 10.8546C16.3843 10.8546 15.3484 11.5646 14.8726 12.586H14.0088V1.42268H17.2377L21.5773 6.94458V12.586Z" fill="#EEEEEE"/>
</svg>
