<svg width="15" height="15" viewBox="0 0 15 15" fill="none" xmlns="http://www.w3.org/2000/svg">
<g clip-path="url(#clip0_244_2116)">
<path d="M7.56081 4.0634L7.5608 4.06339L1.10256 2.1654C1.10255 2.1654 1.10254 2.1654 1.10253 2.16539C0.668986 2.11817 0.311949 1.75458 0.266208 1.31263L0.266207 1.31262C0.220738 0.873448 0.491118 0.450942 0.908133 0.312219L0.90848 0.312103C0.966417 0.292736 1.01718 0.283235 1.08249 0.271012C1.114 0.265113 1.1489 0.258581 1.18963 0.25H1.18995H1.19031H1.19067H1.19103H1.19139H1.19175H1.1921H1.19246H1.19282H1.19318H1.19354H1.1939H1.19426H1.19462H1.19497H1.19533H1.19569H1.19605H1.19641H1.19677H1.19713H1.19749H1.19784H1.1982H1.19856H1.19892H1.19928H1.19964H1.2H1.20036H1.20071H1.20107H1.20143H1.20179H1.20215H1.20251H1.20287H1.20323H1.20358H1.20394H1.2043H1.20466H1.20502H1.20538H1.20574H1.2061H1.20645H1.20681H1.20717H1.20753H1.20789H1.20825H1.20861H1.20897H1.20932H1.20968H1.21004H1.2104H1.21076H1.21112H1.21148H1.21184H1.21219H1.21255H1.21291H1.21327H1.21363H1.21399H1.21435H1.2147H1.21506H1.21542H1.21578H1.21614H1.2165H1.21686H1.21722H1.21757H1.21793H1.21829H1.21865H1.21901H1.21937H1.21973H1.22009H1.22044H1.2208H1.22116H1.22152H1.22188H1.22224H1.2226H1.22296H1.22331H1.22367H1.22403H1.22439H1.22475H1.22511H1.22547H1.22583H1.22618H1.22654H1.2269H1.22726H1.22762H1.22798H1.22834H1.2287H1.22905H1.22941H1.22977H1.23013H1.23049H1.23085H1.23121H1.23157H1.23192H1.23228H1.23264H1.233H1.23336H1.23372H1.23408H1.23444H1.23479H1.23515H1.23551H1.23587H1.23623H1.23659H1.23695H1.23731H1.23766H1.23802H1.23838H1.23874H1.2391H1.23946H1.23982H1.24018H1.24053H1.24089H1.24125H1.24161H1.24197H1.24233H1.24269H1.24305H1.2434H1.24376H1.24412H1.24448H1.24484H1.2452H1.24556H1.24592H1.24627H1.24663H1.24699H1.24735H1.24771H1.24807H1.24843H1.24879H1.24914H1.2495H1.24986H1.25022H1.25058H1.25094H1.2513H1.25165H1.25201H1.25237H1.25273H1.25309H1.25345H1.25381H1.25417H1.25452H1.25488H1.25524H1.2556H1.25596H1.25632H1.25668H1.25704H1.25739H1.25775H1.25811H1.25847H1.25883H1.25919H1.25955H1.25991H1.26026H1.26062H1.26098H1.26134H1.2617H1.26206H1.26242H1.26278H1.26313H1.26349H1.26385H1.26421H1.26457H1.26493H1.26529H1.26565H1.266H1.26636H1.26672H1.26708H1.26744H1.2678H1.26816H1.26852H1.26887H1.26923H1.26959H1.26995H1.27031H1.27067H1.27103H1.27139H1.27174H1.2721H1.27246H1.27282H1.27318H1.27354H1.2739H1.27426H1.27461H1.27497H1.27533H1.27569H1.27605H1.27641H1.27677H1.27713H1.27748H1.27784H1.2782H1.27856H1.27892H1.27928H1.27964H1.28H1.28035H1.28071H1.28107H1.28143H1.28179H1.28215H1.28251H1.28287H1.28322H1.28358H1.28394H1.2843H1.28466H1.28502H1.28538H1.28573H1.28609H1.28645H1.28681H1.28717H1.28753H1.28789H1.28825H1.2886H1.28896H1.28932H1.28968H1.29004H1.2904H1.29076H1.29112H1.29147H1.29183H1.29219H1.29255H1.29291H1.29327H1.29363H1.29399H1.29434H1.2947H1.29506H1.29542H1.29578H1.29614H1.2965H1.29686H1.29721H1.29757H1.29793H1.29829H1.29865H1.29901H1.29937H1.29973H1.30008H1.30044H1.3008H1.30116H1.30152H1.30188H1.30224H1.3026H1.30295H1.30331H1.30367H1.30403H1.30439H1.30475H1.30511H1.30547H1.30582H1.30618H1.30654H1.3069H1.30726H1.30762H1.30798H1.30834H1.30869H1.30905H1.30941H1.30977H1.31013H1.31049H1.31085H1.31121H1.31156H1.31192H1.31228H1.31264H1.313H1.31336H1.31372H1.31408H1.31443H1.31479H1.31515H1.31551H1.31587H1.31623H1.31659H1.31695H1.3173H1.31766H1.31802H1.31838H1.31874H1.3191H1.31946H1.31981H1.32017H1.32053H1.32089H1.32125H1.32161H1.32197H1.32233H1.32268H1.32304H1.3234H1.32376H1.32412H1.32448H1.32484H1.3252H1.32555H1.32591H1.32627H1.32663H1.32699H1.32735H1.32771H1.32807H1.32842H1.32878H1.32914H1.3295H1.32986H1.33022H1.33058H1.33094H1.33129H1.33165H1.33201H1.33237H1.33273H1.33309H1.33345H1.33381H1.33393C1.33558 0.250182 1.33738 0.250383 1.33931 0.250598C1.36571 0.253543 1.41722 0.259289 1.45594 0.259917L1.45656 0.259926C2.22346 0.270435 2.98403 0.349254 3.73846 0.49163C4.90708 0.712249 6.02668 1.08107 7.09588 1.60058C8.81128 2.43407 10.2873 3.57628 11.5233 5.02818C12.7417 6.45944 13.6254 8.07383 14.1717 9.87256L14.1718 9.87257C14.4777 10.8796 14.662 11.9084 14.7226 12.9591L14.7227 12.9592C14.7283 13.056 14.7353 13.1537 14.7422 13.2493C14.7448 13.2851 14.7473 13.3206 14.7498 13.3557V13.3558V13.3569V13.358V13.3591V13.3602V13.3613V13.3624V13.3635V13.3646V13.3657V13.3668V13.368V13.3691V13.3702V13.3713V13.3724V13.3735V13.3746V13.3757V13.3768V13.3779V13.379V13.3801V13.3812V13.3823V13.3834V13.3845V13.3856V13.3868V13.3879V13.389V13.3901V13.3912V13.3923V13.3934V13.3945V13.3956V13.3967V13.3978V13.3989V13.4V13.4011V13.4022V13.4033V13.4044V13.4056V13.4067V13.4078V13.4089V13.41V13.4111V13.4122V13.4133V13.4144V13.4155V13.4166V13.4177V13.4188V13.4199V13.421V13.4221V13.4232V13.4244V13.4255V13.4266V13.4277V13.4288V13.4299V13.431V13.4321V13.4332V13.4343V13.4354V13.4365V13.4376V13.4387V13.4398V13.4409V13.442V13.4432V13.4443V13.4454V13.4465V13.4476V13.4487V13.4498V13.4509V13.452V13.4531V13.4542V13.4553V13.4564V13.4575V13.4586V13.4597V13.4609V13.462V13.4631V13.4642V13.4653V13.4664V13.4675V13.4686V13.4697V13.4708V13.4719V13.473V13.4741V13.4752V13.4763V13.4774V13.4786V13.4797V13.4808V13.4819V13.483V13.4841V13.4852V13.4863V13.4874V13.4885V13.4896V13.4907V13.4918V13.4929V13.494V13.4951V13.4962V13.4974V13.4985V13.4996V13.5007V13.5018V13.5029V13.504V13.5051V13.5062V13.5073V13.5084V13.5095V13.5106V13.5117V13.5128V13.5139V13.5151V13.5162V13.5173V13.5184V13.5195V13.5206V13.5217V13.5228V13.5239V13.525V13.5261V13.5272V13.5283V13.5294V13.5305V13.5316V13.5328V13.5339V13.535V13.5361V13.5372V13.5383V13.5394V13.5405V13.5416V13.5427V13.5438V13.5449V13.546V13.5471V13.5482V13.5493V13.5505V13.5516V13.5527V13.5538V13.5549V13.556V13.5571V13.5582V13.5593V13.5604V13.5615V13.5626V13.5637V13.5648V13.5659V13.567V13.5682V13.5693V13.5704V13.5715V13.5726V13.5737V13.5748V13.5759V13.577V13.5781V13.5792V13.5803V13.5814V13.5825V13.5836V13.5847V13.5859V13.587V13.5881V13.5892V13.5903V13.5914V13.5925V13.5936V13.5947V13.5958V13.5969V13.598V13.5991V13.6002V13.6013V13.6024V13.6036V13.6047V13.6058V13.6069V13.608V13.6091V13.6102V13.6113V13.6124V13.6135V13.6146V13.6157V13.6168V13.6179V13.619V13.6201V13.6213V13.6224V13.6235V13.6246V13.6257V13.6268V13.6279V13.629V13.6301V13.6312V13.6323V13.6334V13.6345V13.6356V13.6367V13.6378V13.639V13.6401V13.6412V13.6423V13.6434V13.6445V13.6456V13.6467V13.6478V13.6489V13.65V13.6511V13.6522V13.6533V13.6544V13.6555V13.6567V13.6578V13.6589V13.66V13.6611V13.6622V13.6633V13.6644V13.6655V13.6666V13.6677V13.6688V13.6699V13.671V13.6721V13.6732V13.6744V13.6755V13.6766V13.6777V13.6788V13.6799V13.681V13.6821V13.6832V13.6843V13.6854V13.6865V13.6876V13.6887V13.6898V13.6909V13.6921V13.6932V13.6943V13.6954V13.6965V13.6976V13.6987V13.6998V13.7009V13.702V13.7031V13.7042V13.7053V13.7064V13.7075V13.7086V13.7098V13.7109V13.712V13.7131V13.7142V13.7153V13.7164V13.7175V13.7186V13.7197V13.7208V13.7219V13.723V13.7241V13.7252V13.7263V13.7275V13.7286V13.7297V13.7308V13.7319V13.733V13.7341V13.7352V13.7363V13.7374V13.7385V13.7396V13.7407V13.7418V13.7429V13.744V13.7452V13.7463V13.7474V13.7485V13.7496V13.7507V13.7518V13.7529V13.754V13.7551V13.7562V13.7573V13.7584V13.7595V13.7606V13.7617V13.7628V13.764V13.7651V13.7662V13.7673V13.7684V13.7695V13.7706V13.7717V13.7728V13.7739V13.775V13.7761V13.7772V13.7783V13.7794V13.7805V13.7817V13.7828V13.7839V13.785V13.7861V13.7872V13.7883V13.7894V13.7905V13.7916V13.7927V13.7938V13.7949V13.796V13.7971V13.7982V13.7994V13.8005V13.8016V13.8027V13.8038V13.8049V13.806V13.8071V13.8082V13.8093V13.8104V13.8115V13.8126V13.8137V13.8148V13.8159V13.817V13.8182V13.8193V13.8204V13.8215V13.8226V13.8237V13.8248V13.8259V13.827V13.8281V13.8292V13.8303V13.8314V13.8325V13.8336V13.8347V13.8359V13.837V13.8381V13.8392V13.8403V13.8414V13.8425V13.8436V13.8447V13.8458V13.8469V13.848V13.8491V13.8502V13.8513V13.8524V13.8535V13.8547V13.8558V13.8569V13.858V13.8591V13.8602V13.8613V13.8624V13.8635V13.8646V13.8657V13.8668V13.8679V13.869V13.8701V13.8712V13.8723V13.8735V13.8746V13.8757V13.8762C14.7465 13.8876 14.7425 13.9029 14.7395 13.9202C14.6731 14.2908 14.4772 14.537 14.134 14.6756L14.1339 14.6756C14.0951 14.6913 14.0495 14.7034 13.9907 14.7158C13.9741 14.7193 13.954 14.7233 13.9321 14.7277C13.8979 14.7344 13.8595 14.742 13.8236 14.75H13.8233H13.8231H13.8229H13.8226H13.8224H13.8222H13.8219H13.8217H13.8214H13.8212H13.821H13.8207H13.8205H13.8202H13.82H13.8198H13.8195H13.8193H13.819H13.8188H13.8186H13.8183H13.8181H13.8178H13.8176H13.8174H13.8171H13.8169H13.8167H13.8164H13.8162H13.8159H13.8157H13.8155H13.8152H13.815H13.8147H13.8145H13.8143H13.814H13.8138H13.8135H13.8133H13.8131H13.8128H13.8126H13.8123H13.8121H13.8119H13.8116H13.8114H13.8112H13.8109H13.8107H13.8104H13.8102H13.81H13.8097H13.8095H13.8092H13.809H13.8088H13.8085H13.8083H13.808H13.8078H13.8076H13.8073H13.8071H13.8069H13.8066H13.8064H13.8061H13.8059H13.8057H13.8054H13.8052H13.8049H13.8047H13.8045H13.8042H13.804H13.8037H13.8035H13.8033H13.803H13.8028H13.8025H13.8023H13.8021H13.8018H13.8016H13.8014H13.8011H13.8009H13.8006H13.8004H13.8002H13.7999H13.7997H13.7994H13.7992H13.799H13.7987H13.7985H13.7982H13.798H13.7978H13.7975H13.7973H13.7971H13.7968H13.7966H13.7963H13.7961H13.7959H13.7956H13.7954H13.7951H13.7949H13.7947H13.7944H13.7942H13.7939H13.7937H13.7935H13.7932H13.793H13.7927H13.7925H13.7923H13.792H13.7918H13.7916H13.7913H13.7911H13.7908H13.7906H13.7904H13.7901H13.7899H13.7896H13.7894H13.7892H13.7889H13.7887H13.7884H13.7882H13.788H13.7877H13.7875H13.7873H13.787H13.7868H13.7865H13.7863H13.7861H13.7858H13.7856H13.7853H13.7851H13.7849H13.7846H13.7844H13.7841H13.7839H13.7837H13.7834H13.7832H13.7829H13.7827H13.7825H13.7822H13.782H13.7818H13.7815H13.7813H13.781H13.7808H13.7806H13.7803H13.7801H13.7798H13.7796H13.7794H13.7791H13.7789H13.7786H13.7784H13.7782H13.7779H13.7777H13.7775H13.7772H13.777H13.7767H13.7765H13.7763H13.776H13.7758H13.7755H13.7753H13.7751H13.7748H13.7746H13.7743H13.7741H13.7739H13.7736H13.7734H13.7731H13.7729H13.7727H13.7724H13.7722H13.772H13.7717H13.7715H13.7712H13.771H13.7708H13.7705H13.7703H13.77H13.7698H13.7696H13.7693H13.7691H13.7688H13.7686H13.7684H13.7681H13.7679H13.7677H13.7674H13.7672H13.7669H13.7667H13.7665H13.7662H13.766H13.7657H13.7655H13.7653H13.765H13.7648H13.7645H13.7643H13.7641H13.7638H13.7636H13.7633H13.7631H13.7629H13.7626H13.7624H13.7622H13.7619H13.7617H13.7614H13.7612H13.761H13.7607H13.7605H13.7602H13.76H13.7598H13.7595H13.7593H13.759H13.7588H13.7586H13.7583H13.7581H13.7578H13.7576H13.7574H13.7571H13.7569H13.7567H13.7564H13.7562H13.7559H13.7557H13.7555H13.7552H13.755H13.7547H13.7545H13.7543H13.754H13.7538H13.7535H13.7533H13.7531H13.7528H13.7526H13.7523H13.7521H13.7519H13.7516H13.7514H13.7512H13.7509H13.7507C13.7273 14.746 13.7067 14.7428 13.6879 14.7399C13.6447 14.7331 13.6104 14.7277 13.571 14.7182C13.1317 14.6125 12.8352 14.2407 12.8313 13.7902C12.8258 13.1612 12.7792 12.534 12.6779 11.9095C12.5135 10.8966 12.2217 9.92061 11.7925 8.98738C10.8529 6.94428 9.44316 5.29589 7.56081 4.0634Z" fill="#EEEEEE" stroke="#262626" stroke-width="0.5"/>
<path d="M9.00423 14.6886L9.00432 14.6886C9.06273 14.7079 9.11436 14.7174 9.18059 14.7296C9.21183 14.7354 9.24631 14.7417 9.28629 14.75C9.30332 14.75 9.32048 14.75 9.33768 14.7501C9.33776 14.75 9.33785 14.75 9.33794 14.75C9.35122 14.7468 9.37438 14.7414 9.40171 14.7387L9.40201 14.7387C9.89926 14.6896 10.2706 14.283 10.2716 13.7804C10.2732 12.9392 10.1609 12.1141 9.92755 11.3072C9.41647 9.5406 8.4651 8.05822 7.06242 6.8735C5.37466 5.44808 3.42085 4.73672 1.20966 4.72061L1.20962 4.72061C0.77067 4.71735 0.386091 5.01922 0.278073 5.44752L0.277985 5.44786C0.269771 5.48024 0.262934 5.51091 0.255265 5.54532C0.253559 5.55297 0.251812 5.56081 0.25 5.56889V5.56895V5.56949V5.57003V5.57057V5.57111V5.57164V5.57218V5.57272V5.57326V5.5738V5.57433V5.57487V5.57541V5.57595V5.57649V5.57702V5.57756V5.5781V5.57864V5.57918V5.57972V5.58025V5.58079V5.58133V5.58187V5.58241V5.58294V5.58348V5.58402V5.58456V5.5851V5.58563V5.58617V5.58671V5.58725V5.58779V5.58833V5.58886V5.5894V5.58994V5.59048V5.59102V5.59155V5.59209V5.59263V5.59317V5.59371V5.59424V5.59478V5.59532V5.59586V5.5964V5.59693V5.59747V5.59801V5.59855V5.59909V5.59963V5.60016V5.6007V5.60124V5.60178V5.60232V5.60285V5.60339V5.60393V5.60447V5.60501V5.60554V5.60608V5.60662V5.60716V5.6077V5.60824V5.60877V5.60931V5.60985V5.61039V5.61093V5.61146V5.612V5.61254V5.61308V5.61362V5.61415V5.61469V5.61523V5.61577V5.61631V5.61684V5.61738V5.61792V5.61846V5.619V5.61954V5.62007V5.62061V5.62115V5.62169V5.62223V5.62276V5.6233V5.62384V5.62438V5.62492V5.62545V5.62599V5.62653V5.62707V5.62761V5.62814V5.62868V5.62922V5.62976V5.6303V5.63084V5.63137V5.63191V5.63245V5.63299V5.63353V5.63406V5.6346V5.63514V5.63568V5.63622V5.63675V5.63729V5.63783V5.63837V5.63891V5.63945V5.63998V5.64052V5.64106V5.6416V5.64214V5.64267V5.64321V5.64375V5.64429V5.64483V5.64536V5.6459V5.64644V5.64698V5.64752V5.64805V5.64859V5.64913V5.64967V5.65021V5.65075V5.65128V5.65182V5.65236V5.6529V5.65344V5.65397V5.65451V5.65505V5.65559V5.65613V5.65666V5.6572V5.65774V5.65828V5.65882V5.65936V5.65989V5.66043V5.66097V5.66151V5.66205V5.66258V5.66312V5.66366V5.6642V5.66474V5.66527V5.66581V5.66635V5.66689V5.66743V5.66796V5.6685V5.66904V5.66958V5.67012V5.67066V5.67119V5.67173V5.67227V5.67281V5.67335V5.67388V5.67442V5.67496V5.6755V5.67604V5.67657V5.67711V5.67765V5.67819V5.67873V5.67926V5.6798V5.68034V5.68088V5.68142V5.68196V5.68249V5.68303V5.68357V5.68411V5.68465V5.68518V5.68572V5.68626V5.6868V5.68734V5.68787V5.68841V5.68895V5.68949V5.69003V5.69057V5.6911V5.69164V5.69218V5.69272V5.69326V5.69379V5.69433V5.69487V5.69541V5.69595V5.69648V5.69702V5.69756V5.6981V5.69864V5.69917V5.69971V5.70025V5.70079V5.70133V5.70187V5.7024V5.70294V5.70348V5.70402V5.70456V5.70509V5.70563V5.70617V5.70671V5.70725V5.70778V5.70832V5.70886V5.7094V5.70994V5.71048V5.71101V5.71155V5.71209V5.71263V5.71317V5.7137V5.71424V5.71478V5.71532V5.71586V5.71639V5.71693V5.71747V5.71801V5.71855V5.71908V5.71962V5.72016V5.7207V5.72124V5.72178V5.72231V5.72285V5.72339V5.72393V5.72447V5.725V5.72554V5.72608V5.72662V5.72716V5.72769V5.72823V5.72877V5.72931V5.72985V5.73039V5.73092V5.73146V5.732V5.73254V5.73308V5.73361V5.73415V5.73469V5.73523V5.73577V5.7363V5.73684V5.73738V5.73792V5.73846V5.73899V5.73953V5.74007V5.74061V5.74115V5.74169V5.74222V5.74276V5.7433V5.74384V5.74438V5.74491V5.74545V5.74599V5.74653V5.74707V5.7476V5.74814V5.74868V5.74922V5.74976V5.75029V5.75083V5.75137V5.75191V5.75245V5.75299V5.75352V5.75406V5.7546V5.75514V5.75568V5.75621V5.75675V5.75729V5.75783V5.75837V5.7589V5.75944V5.75998V5.76052V5.76106V5.7616V5.76213V5.76267V5.76321V5.76375V5.76429V5.76482V5.76536V5.7659V5.76644V5.76698V5.76751V5.76805V5.76859V5.76913V5.76967V5.7702V5.77074V5.77128V5.77182V5.77236V5.77236C0.254115 5.78566 0.258499 5.80257 0.261354 5.82175L0.261429 5.82225C0.280143 5.94968 0.320866 6.06443 0.385738 6.1662L9.00423 14.6886ZM9.00423 14.6886C8.63893 14.5684 8.38342 14.2353 8.35851 13.8487L9.00423 14.6886ZM1.21224 6.88653C1.76005 6.89266 2.30189 6.94638 2.83286 7.08215C4.785 7.58143 6.25745 8.71332 7.24974 10.4639C7.68811 11.2373 7.95367 12.0724 8.05133 12.9568C8.07331 13.156 8.08296 13.3567 8.0926 13.5574C8.09753 13.6599 8.10246 13.7624 8.10903 13.8647C8.14041 14.3518 8.46245 14.7735 8.92607 14.9261L0.385756 6.16623C0.583996 6.47708 0.853229 6.63249 1.21504 6.63655C1.21504 6.63655 1.21505 6.63655 1.21505 6.63655L1.21224 6.88653ZM1.21224 6.88653C0.761939 6.88148 0.416327 6.67914 0.174949 6.30061L1.21224 6.88653Z" fill="#EEEEEE" stroke="#262626" stroke-width="0.5"/>
<path d="M2.45192 10.3822C1.25504 10.3836 0.282962 11.3571 0.284181 12.552L2.45192 10.3822ZM2.45192 10.3822C3.65325 10.3808 4.62727 11.3551 4.62398 12.5526M2.45192 10.3822L4.62398 12.5526M4.62398 12.5526C4.62068 13.7536 3.6518 14.7205 2.45453 14.7199M4.62398 12.5526L2.45453 14.7199M2.45453 14.7199C1.25718 14.7192 0.285569 13.7484 0.284181 12.552L2.45453 14.7199Z" fill="#EEEEEE" stroke="#262626" stroke-width="0.5"/>
</g>
<defs>
<clipPath id="clip0_244_2116">
<rect width="15" height="15" fill="white"/>
</clipPath>
</defs>
</svg>
