<svg width="25" height="25" viewBox="0 0 25 25" fill="none" xmlns="http://www.w3.org/2000/svg">
<path d="M17.2109 15.2264V11.3609C17.2109 10.1932 16.4665 9.16047 15.3586 8.79111C15.3529 8.78918 14.6434 8.57159 14.6434 8.57159C14.3889 8.49313 14.112 8.55509 13.9146 8.73362L12.5 10.0125L11.0854 8.73354C10.888 8.555 10.6108 8.49305 10.3565 8.5715C10.3565 8.5715 9.64706 8.78918 9.64134 8.79103C8.53342 9.16047 7.78906 10.1931 7.78906 11.3608V15.2263C7.78906 15.644 8.12761 15.9825 8.54529 15.9825H16.4546C16.8723 15.9826 17.2109 15.6441 17.2109 15.2264ZM15.6984 14.4702H9.3016V11.3609C9.3016 10.8478 9.62694 10.3938 10.1122 10.2285L10.3896 10.1433L11.9929 11.5929C12.2809 11.8533 12.7193 11.8533 13.0072 11.5929L14.6106 10.1433L14.888 10.2285C15.3732 10.3938 15.6986 10.8478 15.6986 11.3609V14.4702H15.6984Z" fill="white"/>
<path d="M12.5001 8.403C14.0073 8.403 15.2336 7.17674 15.2336 5.66941C15.2336 4.16218 14.0073 2.93591 12.5001 2.93591C10.9929 2.93591 9.7666 4.16218 9.7666 5.66941C9.7666 7.17674 10.9929 8.403 12.5001 8.403ZM12.5001 4.44837C13.1733 4.44837 13.7211 4.99618 13.7211 5.66941C13.7211 6.34273 13.1733 6.89054 12.5001 6.89054C11.8269 6.89054 11.2791 6.34273 11.2791 5.66941C11.2791 4.99618 11.8269 4.44837 12.5001 4.44837Z" fill="white"/>
<path d="M16.904 23.4875H14.3545C16.8838 20.8893 22.0642 14.9146 22.0642 9.56406C22.0641 4.2904 17.7737 0 12.5001 0C7.22652 0 2.93604 4.2904 2.93604 9.56406C2.93604 14.7944 8.15178 20.8633 10.6689 23.4875H8.09614C7.67846 23.4875 7.33991 23.8261 7.33991 24.2438C7.33991 24.6614 7.67846 25 8.09614 25H16.904C17.3216 25 17.6602 24.6614 17.6602 24.2438C17.6602 23.8261 17.3216 23.4875 16.904 23.4875ZM12.5001 1.51246C16.9398 1.51246 20.5517 5.12433 20.5517 9.56406C20.5517 14.9162 14.354 21.3837 12.5052 23.1935C10.6604 21.3546 4.44849 14.7744 4.44849 9.56406C4.44849 5.12433 8.06036 1.51246 12.5001 1.51246Z" fill="white"/>
</svg>
