<svg width="23" height="23" viewBox="0 0 23 23" fill="none" xmlns="http://www.w3.org/2000/svg">
<g clip-path="url(#clip0_246_2774)">
<path d="M23 5.58627L18.2116 0.795532V4.60019H17.7428C13.5758 4.60019 11.5024 7.99287 9.67321 10.9862C7.88846 13.9065 6.34719 16.4287 3.28572 16.4287H0V18.4001H3.28572C7.45281 18.4001 9.52613 15.0075 11.3554 12.0141C13.1401 9.09373 14.6814 6.57154 17.7428 6.57154H18.2116V10.3758L23 5.58627Z" fill="#CBF556"/>
<path d="M23 17.4148L18.2116 12.6241V16.4288H17.7428C14.6813 16.4288 13.1401 13.9066 11.3554 10.9862C9.52613 7.99288 7.45276 4.60016 3.28572 4.60016H0V6.5716H3.28572C6.34724 6.5716 7.88846 9.09378 9.67321 12.0142C11.5024 15.0075 13.5758 18.4002 17.7428 18.4002H18.2116V22.2045L23 17.4148Z" fill="#CBF556"/>
<path d="M22.9999 5.58627L18.2115 0.795532V4.60019H17.7427C14.1972 4.60019 12.1675 7.05625 10.5142 9.63274V13.3677C10.804 12.9161 11.0824 12.4608 11.3552 12.0143C13.14 9.09386 14.6812 6.57168 17.7427 6.57168H18.2115V10.3759L22.9999 5.58627Z" fill="#CBF556"/>
<path d="M22.9999 17.4148L18.2115 12.6241V16.4287H17.7427C14.6812 16.4287 13.14 13.9066 11.3552 10.9861C11.0824 10.5397 10.804 10.0843 10.5142 9.63269V13.3677C12.1675 15.9441 14.1972 18.4002 17.7427 18.4002H18.2115V22.2045L22.9999 17.4148Z" fill="#CBF556"/>
</g>
<defs>
<clipPath id="clip0_246_2774">
<rect width="23" height="23" fill="white"/>
</clipPath>
</defs>
</svg>
