<svg width="15" height="15" viewBox="0 0 15 15" fill="none" xmlns="http://www.w3.org/2000/svg">
<g clip-path="url(#clip0_209_1550)">
<path d="M12.141 7.90698C10.739 7.90698 9.59837 9.04751 9.59837 10.4494C9.59837 11.4373 10.0156 12.4039 10.4838 13.1785L4.22642 10.5121L12.3043 7.07007C12.3115 7.06701 12.3181 7.0633 12.3251 7.05996C12.3958 7.03409 12.4623 6.99333 12.519 6.93661C12.6075 6.84825 14.6847 4.74668 14.6847 2.54243C14.6847 1.14053 13.5437 0 12.1412 0C10.7393 0 9.59866 1.14053 9.59866 2.54243C9.59866 4.08079 10.6096 5.56827 11.2507 6.35715L4.51408 9.22772C4.98316 8.45266 5.40151 7.485 5.40151 6.49596C5.40151 5.09413 4.26048 3.9536 2.85801 3.9536C1.45603 3.9536 0.31543 5.09406 0.31543 6.49596C0.31543 8.70021 2.3917 10.8016 2.48013 10.8901C2.54013 10.9501 2.61103 10.9922 2.68635 11.0178L11.8851 14.9376C11.8921 14.9406 11.8992 14.9427 11.9062 14.9453C11.9801 14.9815 12.0604 15.0001 12.141 15.0001C12.2778 15.0001 12.4145 14.9479 12.5188 14.8437C12.6073 14.7553 14.6847 12.6537 14.6847 10.4495C14.6847 9.04751 13.5436 7.90698 12.141 7.90698ZM12.1412 1.06885C12.9543 1.06885 13.6159 1.7299 13.6159 2.54243C13.6159 3.79705 12.6826 5.10368 12.1407 5.75646C11.599 5.1051 10.6675 3.80161 10.6675 2.54243C10.6676 1.7299 11.3286 1.06885 12.1412 1.06885ZM2.85801 5.02238C3.67111 5.02238 4.33266 5.68335 4.33266 6.49589C4.33266 7.75008 3.40005 9.05614 2.85808 9.70927C2.31638 9.05621 1.38428 7.75008 1.38428 6.49589C1.38428 5.68342 2.0454 5.02238 2.85801 5.02238ZM12.1411 13.6627C11.5993 13.0096 10.6672 11.7035 10.6672 10.4493C10.6672 9.63681 11.3283 8.97576 12.141 8.97576C12.9541 8.97576 13.6157 9.63681 13.6157 10.4493C13.6158 11.7036 12.6831 13.0097 12.1411 13.6627Z" fill="white"/>
</g>
<defs>
<clipPath id="clip0_209_1550">
<rect width="15" height="15" fill="white"/>
</clipPath>
</defs>
</svg>
